<svg xmlns="http://www.w3.org/2000/svg" width="213.928" height="35.995"><defs><style>.cls-3{fill:#73475d}.cls-10,.cls-11,.cls-6,.cls-7,.cls-8{fill-rule:evenodd}.cls-6{fill:#492d4d}.cls-7{fill:#0fb3bf}.cls-8{fill:#6175b7}.cls-10{fill:#fbba13}.cls-11{fill:#e5e5e4}</style></defs><g id="Сгруппировать_406" transform="translate(-131.246 -22.747)"><path id="Контур_114" fill="#fee9a8" d="M295.246 69.732c2.723 0 5.273 1.381 5.273 4.545v4.564c0 3.126-2.55 4.488-5.273 4.468h-5.083V69.732zm.115 10.356c1.17 0 1.706-.595 1.706-1.476v-4.239c0-.882-.556-1.437-1.706-1.437h-1.745v7.152zm18.52 3.221H310.2l-.882-2.723h-3.624l-.844 2.723h-3.682l4.732-13.577h3.126zm-5.389-5.772l-.939-3.969h-.1l-1 3.969zm9.718 5.772h-3.433V69.732h3.433zm2.146-13.577h3.452v10.183h5.522v3.394h-8.974zm13.8 13.577v-5.35l-4.736-8.227h3.989l2.455 4.986 2.454-4.986h4.027l-4.756 8.227v5.35z" transform="translate(-108.946 -34.946)"/><path id="Контур_115" fill="#fbb90c" d="M301.383 148.706h-8.333v-6.559h-.718v13.815h.718v-6.539h8.333v6.539h.718v-13.815h-.718v6.559zm8.9-6.75c-2.486 0-5.162 1.237-5.162 3.954v6.271c0 2.608 2.6 3.973 5.162 3.973s5.182-1.365 5.182-3.973v-6.271c-.002-1.904-1.624-3.954-5.184-3.954zm4.464 3.954v6.271c0 2.236-2.314 3.255-4.464 3.255s-4.444-1.018-4.444-3.255v-6.271c0-2.376 2.384-3.239 4.425-3.256 2.068 0 4.484.853 4.484 3.256zm13.006.036c-.052-2.52-1.512-3.8-4.338-3.8H318.5v13.815h.7V149.9h2.908l4.529 6.012.035.048h.855l-4.583-6.059h.49c2.865 0 4.318-1.331 4.318-3.957zm-.7.022c0 2.265-1.116 3.275-3.62 3.275H319.2v-6.416h4.236a3.8 3.8 0 012.82.856 3.078 3.078 0 01.8 2.285zm7.614-4.012c-2.486 0-5.163 1.237-5.163 3.954v6.271c0 2.608 2.6 3.973 5.163 3.973s5.182-1.365 5.182-3.973v-6.271c-.001-1.904-1.623-3.954-5.183-3.954zm4.464 3.954v6.271c0 2.236-2.314 3.255-4.464 3.255s-4.445-1.018-4.445-3.255v-6.271c0-2.376 2.384-3.239 4.425-3.256 2.068 0 4.483.853 4.483 3.256zm7.752 2.645c-2.779-.561-4.017-1.569-3.895-3.174.167-2.53 2.931-2.727 3.774-2.727a4.213 4.213 0 013.675 1.743l.051.089.664-.26-.068-.12a4.687 4.687 0 00-4.323-2.15c-2.177 0-4.41 1.055-4.49 3.412-.115 2.581 2.183 3.41 4.445 3.88 2.092.456 4.12 1.1 3.955 3.415-.278 2.061-2.269 2.792-3.89 2.792a4.766 4.766 0 01-3.968-1.866l-.056-.08-.66.287.079.118a5.381 5.381 0 004.566 2.239c3.051 0 4.566-1.8 4.683-3.466.206-2.855-2.495-3.726-4.544-4.132zm15.444 5.229a4.432 4.432 0 01-3.755 1.652c-2 0-4.158-1-4.158-3.2v-6.367c0-2.112 2.092-3.217 4.158-3.217a4.371 4.371 0 013.753 1.745l.067.111.615-.448-.058-.094a5 5 0 00-4.32-2.013c-2.451 0-4.932 1.345-4.932 3.915v6.367c0 2.571 2.453 3.916 4.875 3.916a5.066 5.066 0 004.378-2.031l.068-.111-.632-.317zm7.708-11.828c-2.486 0-5.162 1.237-5.162 3.954v6.271c0 2.608 2.6 3.973 5.162 3.973s5.182-1.365 5.182-3.973v-6.271c-.001-1.904-1.623-3.954-5.183-3.954zm4.464 3.954v6.271c0 2.236-2.314 3.255-4.464 3.255s-4.445-1.018-4.445-3.255v-6.271c0-2.376 2.384-3.239 4.425-3.256 2.068 0 4.483.853 4.483 3.256zm8.668-3.763h-4.913v13.815h.718v-5.407h4.216a4.1 4.1 0 004.26-4.166 4.164 4.164 0 00-4.281-4.242zm3.563 4.223a3.366 3.366 0 01-3.563 3.467h-4.2v-7.011h4.195a3.459 3.459 0 013.563 3.352v.193zm11.376-3.505v-.718h-8.312v13.815h8.306v-.718h-7.593v-5.782h7.018v-.756h-7.018v-5.841z" transform="translate(-52.931 -107.355)"/><g id="Сгруппировать_405" transform="translate(111.246 2.747)"><path id="Контур_116" d="M78.9 165.156a11.978 11.978 0 0013.2-2.234l-15.979.462a11.678 11.678 0 002.78 1.772z" class="cls-3" transform="translate(-43.664 -116.849)"/><path id="Контур_117" fill="#58324c" fill-rule="evenodd" d="M72.325 63.552a11.4 11.4 0 012.792 4.9L52.37 70.211a11.074 11.074 0 01.2-1.213l19.759-5.446zM55.5 79.239a11.4 11.4 0 01-2.792-4.9l22.747-1.76a11.069 11.069 0 01-.2 1.213L55.5 79.239z" transform="translate(-23.733 -33.398)"/><path id="Контур_118" fill="#653a54" fill-rule="evenodd" d="M56.754 59.56l15.809-.46q.4.342.757.714l-19.756 5.445a11.314 11.314 0 013.19-5.699zm16.313 16.194l-15.809.461q-.4-.342-.757-.714l19.756-5.446a11.314 11.314 0 01-3.19 5.7z" transform="translate(-24.73 -29.659)"/><path id="Контур_119" d="M74.8 94.089l-22.4 5.888a11.185 11.185 0 01-.34-4.129l22.74-1.759z" class="cls-6" transform="translate(-23.423 -59.035)"/><path id="Контур_120" d="M54.45 99.977l22.4-5.888a11.181 11.181 0 01.34 4.129z" class="cls-6" transform="translate(-25.47 -59.035)"/><path id="Контур_121" d="M19.8 72.232c-4.855-.424-8.241.076-8.641 1.532-.657 2.4 7.03 6.511 17.113 9.153s18.843 2.839 19.5.44c.4-1.456-2.274-3.541-6.689-5.547q.023.34.025.678c3.4 1.5 5.428 2.933 5.171 3.869-.467 1.7-8.331 1.133-17.505-1.27S12.5 75.333 12.967 73.628c.257-.937 2.75-1.186 6.467-.821q.175-.293.369-.575z" class="cls-7" transform="translate(10.712 -40.563)"/><path id="Контур_122" d="M57.767 31.648c3.981-2.732 7.163-3.951 8.252-2.888C67.813 30.511 63.265 37.808 55.9 45s-14.846 11.64-16.639 9.889c-1.088-1.062.158-4.166 2.952-8.05q.154.3.325.6c-2.174 2.952-3.2 5.178-2.5 5.861 1.274 1.244 7.781-3.082 14.486-9.63s11.135-12.9 9.861-14.146c-.7-.684-2.983.316-6.01 2.443q-.3-.167-.612-.317z" class="cls-8" transform="translate(-12.46 -3.827)"/><path id="Контур_123" fill="#1d9699" fill-rule="evenodd" d="M117.605 132.063q1.138.291 2.25.542.833-.757 1.67-1.564-1.1-.238-2.243-.515-.845.795-1.678 1.537z" transform="translate(-78.299 -89.636)"/><path id="Контур_124" d="M146.822 83.991a2.92 2.92 0 013.565 2 2.825 2.825 0 01-2.058 3.468 2.92 2.92 0 01-3.565-2 2.83 2.83 0 012.058-3.468z" class="cls-10" transform="translate(-100.924 -50.472)"/><path id="Контур_125" d="M150.045 89.561a.952.952 0 011.162.653.921.921 0 01-.671 1.131.952.952 0 01-1.162-.653.923.923 0 01.671-1.131z" class="cls-11" transform="translate(-104.82 -55.201)"/><path id="Контур_126" d="M46.007 20.5l1.819.91 1.574-1.275-.33 1.965 1.73 1.06-2.022.3-.5 1.93-.922-1.777-2.041.132 1.452-1.4z" class="cls-7" transform="translate(-17.882 3.094)"/><path id="Контур_127" d="M83.937 3.912a16.384 16.384 0 00-15.76 1.256l.012-.018A19.61 19.61 0 0185.266.386zm5.379 28.5l-1.816-.905-1.571 1.271.327-1.96-1.731-1.058 2.022-.3.5-1.925.922 1.772 2.041-.132-1.452 1.4.76 1.843z" class="cls-8" transform="translate(-37.048 19.989)"/><path id="Контур_128" d="M75.4 193.906a16.35 16.35 0 0015.76-1.259l-.012.018a19.576 19.576 0 01-17.076 4.776l1.329-3.534z" class="cls-10" transform="translate(-41.953 -141.821)"/><path id="Контур_129" d="M213.382 66.562l1.188 1.62 2-.431-1.217 1.6 1.039 1.714-1.94-.632-1.355 1.491.018-1.99-1.876-.793 1.951-.6.2-1.981z" class="cls-7" transform="translate(-156.567 -35.913)"/><path id="Контур_130" d="M1.694 115.969l.937 1.278 1.576-.34-.96 1.262.82 1.353-1.531-.5-1.07 1.178.014-1.57L0 118l1.54-.472z" class="cls-10" transform="translate(20 -77.412)"/><path id="Контур_131" d="M38.523 65.562a1.354 1.354 0 011.653.928 1.31 1.31 0 01-.955 1.608 1.354 1.354 0 01-1.653-.928 1.312 1.312 0 01.954-1.608z" class="cls-8" transform="translate(-11.365 -35.033)"/><path id="Контур_132" d="M40.018 68.145a.441.441 0 01.539.3.427.427 0 01-.311.524.441.441 0 01-.539-.3.428.428 0 01.311-.524z" class="cls-11" transform="translate(-13.146 -37.226)"/><path id="Контур_133" d="M41.04 148.375a1.8 1.8 0 012.2 1.234 1.74 1.74 0 01-1.268 2.136 1.8 1.8 0 01-2.2-1.233 1.743 1.743 0 011.268-2.137z" class="cls-7" transform="translate(-13.195 -104.58)"/><path id="Контур_134" d="M43.026 151.806a.586.586 0 01.716.4.567.567 0 01-.413.7.586.586 0 01-.716-.4.568.568 0 01.413-.7z" class="cls-11" transform="translate(-15.602 -107.492)"/><path id="Контур_135" d="M166.211 32.793a1.063 1.063 0 011.3.729 1.028 1.028 0 01-.749 1.263 1.063 1.063 0 01-1.3-.729 1.03 1.03 0 01.749-1.263z" class="cls-10" transform="translate(-118.264 -7.341)"/><path id="Контур_136" d="M167.384 34.821a.346.346 0 01.423.237.335.335 0 01-.244.412.346.346 0 01-.423-.237.336.336 0 01.244-.412z" class="cls-11" transform="translate(-119.682 -9.227)"/><path id="Контур_137" d="M86.149 42.586a11.978 11.978 0 00-13.2 2.234l15.979-.462a11.68 11.68 0 00-2.78-1.772z" class="cls-3" transform="translate(-41.012 -14.877)"/></g></g></svg>